<svg id="Capa_1" enable-background="new 0 0 497.078 497.078" height="512" viewBox="0 0 497.078 497.078" width="512" xmlns="http://www.w3.org/2000/svg"><g><path d="m399.78 20.08v434.26h-325.14c-11.09 0-20.08-8.99-20.08-20.08v-338.27c0-3.23.7-6.39 2.01-9.27l84.71-84.71c2.88-1.31 6.04-2.01 9.27-2.01h229.15c11.09 0 20.08 8.99 20.08 20.08z" fill="#eaf6ff"/><path d="m399.782 438.832v15.51h-63.67c-5.32-7.98-4.46-18.85 2.58-25.89l10.83-10.83c8.02-8.02 21.02-8.02 29.04 0z" fill="#c8effe"/><circle cx="250.071" cy="329" fill="#c8effe" r="92.901"/><g><g><path d="m304.641 161.073h-123.102c-4.143 0-7.5-3.358-7.5-7.5s3.357-7.5 7.5-7.5h123.103c4.143 0 7.5 3.358 7.5 7.5s-3.358 7.5-7.501 7.5z" fill="#99e6fc"/></g><g><path d="m304.641 207.775h-123.102c-4.143 0-7.5-3.358-7.5-7.5s3.357-7.5 7.5-7.5h123.103c4.143 0 7.5 3.358 7.5 7.5s-3.358 7.5-7.501 7.5z" fill="#99e6fc"/></g><g><path d="m280.12 245.02c0 4.14-3.36 7.5-7.5 7.5h-91.08c-4.14 0-7.5-3.36-7.5-7.5s3.36-7.5 7.5-7.5h91.08c2.48 0 4.68 1.21 6.03 3.07.93 1.24 1.47 2.77 1.47 4.43z" fill="#99e6fc"/></g><g><path d="m280.12 289.77c0 4.14-3.36 7.5-7.5 7.5h-91.08c-4.14 0-7.5-3.36-7.5-7.5s3.36-7.5 7.5-7.5h91.08c4.14 0 7.5 3.36 7.5 7.5z" fill="#99e6fc"/></g><g fill="#62dbfb"><path d="m280.12 289.77c0 4.14-3.36 7.5-7.5 7.5h-91.08c-4.14 0-7.5-3.36-7.5-7.5s3.36-7.5 7.5-7.5h91.08c4.14 0 7.5 3.36 7.5 7.5z"/><path d="m280.12 245.02c0 4.14-3.36 7.5-7.5 7.5h-75.31c11.18-7.73 23.68-12.73 36.56-15h38.75c2.48 0 4.68 1.21 6.03 3.07.93 1.24 1.47 2.77 1.47 4.43z"/></g></g><path d="m368.474 430.534c-1.92 0-3.839-.732-5.304-2.197l-28.343-28.343c-2.929-2.929-2.929-7.678 0-10.606 2.931-2.93 7.679-2.929 10.607 0l28.343 28.343c2.929 2.929 2.929 7.678 0 10.606-1.464 1.465-3.384 2.197-5.303 2.197z" fill="#0268b4"/><path d="m379.705.007h-24.369c11.087 0 20.075 8.988 20.075 20.075v434.259h24.369v-434.259c0-11.087-8.988-20.075-20.075-20.075z" fill="#c8effe"/><g><circle cx="274.44" cy="329" fill="#0268b4" r="92.901"/><path d="m340.131 263.309c-21.247-21.247-50.222-30.03-77.876-26.392 19.567 2.575 38.473 11.358 53.507 26.392 36.28 36.28 36.28 95.102 0 131.382-15.034 15.034-33.94 23.817-53.507 26.392 27.654 3.639 56.629-5.145 77.876-26.392 36.28-36.28 36.28-95.102 0-131.382z" fill="#015a9a"/><circle cx="274.44" cy="329" fill="#c8effe" r="62.652"/><path d="m318.742 284.698c-15.322-15.322-36.67-21.029-56.486-17.13 11.776 2.317 23.011 8.024 32.117 17.13 24.428 24.428 24.428 64.175 0 88.603-9.106 9.106-20.341 14.813-32.117 17.13 19.816 3.899 41.164-1.808 56.486-17.13 24.428-24.428 24.428-64.175 0-88.603z" fill="#99e6fc"/><path d="m363.058 428.451 10.832-10.832c8.02-8.02 21.024-8.02 29.044 0l33.568 33.568c8.02 8.02 8.02 21.024 0 29.044l-10.833 10.833c-8.02 8.02-21.024 8.02-29.044 0l-33.568-33.568c-8.019-8.022-8.019-21.025.001-29.045z" fill="#f07281"/><path d="m436.503 451.186-33.568-33.568c-8.02-8.02-21.024-8.02-29.044 0l-1.281 1.281c5.219.028 10.429 2.028 14.411 6.01l25.113 26.277c8.02 8.02 8.02 21.024 0 29.044l-4.003 4.406c-3.387 3.387-7.664 5.326-12.078 5.853l.574.573c8.02 8.02 21.024 8.02 29.044 0l10.833-10.833c8.019-8.019 8.019-21.023-.001-29.043z" fill="#eb5569"/></g><path d="m141.28 2.01v64.64c0 11.08-8.99 20.07-20.07 20.07h-64.64c1.07-2.33 2.53-4.48 4.35-6.35l74.01-74.01c1.87-1.82 4.02-3.28 6.35-4.35z" fill="#c8effe"/><path d="m141.28 2.01v64.64c0 11.08-8.99 20.07-20.07 20.07h-24.37c11.08 0 20.07-8.99 20.07-20.07v-42.27l18.02-18.02c1.87-1.82 4.02-3.28 6.35-4.35z" fill="#99e6fc"/><path d="m289.891 84.786h-93.601c-8.147 0-14.751-6.604-14.751-14.751v-18.504c0-8.147 6.604-14.751 14.751-14.751h93.601c8.147 0 14.751 6.604 14.751 14.751v18.505c0 8.146-6.604 14.75-14.751 14.75z" fill="#99e6fc"/><path d="m289.891 36.779h-24.369c8.147 0 14.751 6.604 14.751 14.751v18.505c0 8.147-6.604 14.751-14.751 14.751h24.369c8.147 0 14.751-6.604 14.751-14.751v-18.504c0-8.147-6.605-14.752-14.751-14.752z" fill="#62dbfb"/><circle cx="126.306" cy="153.573" fill="#0268b4" r="7.529"/><circle cx="126.306" cy="200.275" fill="#0268b4" r="7.529"/><g fill="#f07281"><circle cx="126.306" cy="245.025" r="7.529"/><circle cx="126.306" cy="295.828" r="7.529"/></g></g></svg>